<?xml version="1.0" encoding="UTF-8"?>
<svg id="Ebene_1" data-name="Ebene 1" xmlns="http://www.w3.org/2000/svg" version="1.1" viewBox="0 0 460.9 102.4">
  <defs>
    <style>
      .cls-1 {
        fill: #000;
        stroke-width: 0px;
      }
    </style>
  </defs>
  <g id="Ebene_2" data-name="Ebene 2">
    <g id="Ebene_1-2" data-name="Ebene 1-2">
      <path class="cls-1" d="M170.2,3.9h-15.9c-9,11.8-14.4,25.9-15.6,40.7h-44.7V3.9h-13.4v95.5h13.4v-43.6h44.7c.7,15.9,6.4,31.2,16.2,43.6h16.1c-11.8-12.6-19.8-29.6-19.8-48.2.1-17.6,6.9-34.5,19-47.4ZM225.4,0c-28.3,0-51.2,23-51.1,51.3,0,28.3,23,51.2,51.3,51.1,28.2,0,51.1-22.9,51.1-51.1,0-28.3-23-51.3-51.3-51.3ZM225.4,89c-20.9,0-37.8-16.8-37.9-37.7,0-20.9,16.8-37.8,37.7-37.9,20.9,0,37.8,16.8,37.9,37.7,0,0,0,.1,0,.2,0,20.8-16.9,37.6-37.7,37.7ZM460.9,3.9h-76.4v11.2h31.5v84.3h13.2V15.1h31.6V3.9ZM357.4,3.9l.5,78.9L297.2,3.9h-15.7c10.8,13.4,16.4,30.2,15.9,47.4,0,18-7,35.2-19.5,48.2h15.7c9.8-11.5,16.4-26.8,16.4-46.6,0-6.6-1.4-13.2-4.4-19.2l49.2,65.8h15.9V3.9h-13.4ZM40,3.9H0v95.5h13.4v-37.1h26.6c15.6,0,27.8-9.8,27.8-29.3S55.6,3.9,40,3.9ZM40,51.3H13.6V15.4h26.5c9,0,14.3,6.4,14.3,17.8s-5,18.1-14.3,18.1Z"/>
    </g>
  </g>
</svg>